# xmcd
#
# Track frame offsets:
#	150
#	19127
#	35885
#	60916
#	86535
#
# Disc length: 1326 seconds
#
# Revision: 0
# Processed by: cddbd v1.5.2PL0 Copyright (c) Steve Scherf et al.
# Submitted via: EasyCDDAExtractor 11.5.3.1
#
DISCID=36052c05
DTITLE=The Chi-Lites - Christmas Time at Momma's House
DYEAR=1900
DGENRE=
TTITLE0=Christmas Time at Momma's House
TTITLE1=White Christmas
TTITLE2=Christmas Time at Momma's House (w. Sax)
TTITLE3=The Christmas Song
TTITLE4=Christmas Time at Momma's House (feat. Willie Henderson)
EXTD=
EXTT0=
EXTT1=
EXTT2=
EXTT3=
EXTT4=
PLAYORDER=
